<svg xmlns="http://www.w3.org/2000/svg" viewBox="0 0 64 64" role="img" aria-labelledby="title desc">
  <title id="title">HIDloom mark</title>
  <desc id="desc">Interwoven cyan and violet threads forming a keyboard matrix.</desc>
  <rect x="2.5" y="2.5" width="59" height="59" rx="11.5" fill="#0f172a" stroke="#334155"/>
  <path d="M11.5 18.56H52.5M11.5 32H52.5M11.5 45.44H52.5" stroke="#a78bfa" stroke-width="6.1" stroke-linecap="round"/>
  <path d="M18.56 11.5V52.5M32 11.5V52.5M45.44 11.5V52.5" stroke="#22d3ee" stroke-width="6.1" stroke-linecap="round"/>
  <rect x="15.16" y="15.16" width="6.80" height="6.80" rx="1" fill="#a78bfa"/>
  <rect x="15.16" y="28.60" width="6.80" height="6.80" rx="1" fill="#22d3ee"/>
  <rect x="15.16" y="42.04" width="6.80" height="6.80" rx="1" fill="#a78bfa"/>
  <rect x="28.60" y="15.16" width="6.80" height="6.80" rx="1" fill="#22d3ee"/>
  <rect x="28.60" y="28.60" width="6.80" height="6.80" rx="1" fill="#a78bfa"/>
  <rect x="28.60" y="42.04" width="6.80" height="6.80" rx="1" fill="#22d3ee"/>
  <rect x="42.04" y="15.16" width="6.80" height="6.80" rx="1" fill="#a78bfa"/>
  <rect x="42.04" y="28.60" width="6.80" height="6.80" rx="1" fill="#22d3ee"/>
  <rect x="42.04" y="42.04" width="6.80" height="6.80" rx="1" fill="#a78bfa"/>
</svg>
